<?xml version="1.0" encoding="UTF-8" standalone="no" ?>
<!DOCTYPE svg PUBLIC "-//W3C//DTD SVG 1.1//EN" "http://www.w3.org/Graphics/SVG/1.1/DTD/svg11.dtd">
<svg xmlns="http://www.w3.org/2000/svg" xmlns:xlink="http://www.w3.org/1999/xlink" version="1.1" width="300" height="300" viewBox="0 0 300 300" xml:space="preserve">
<desc>Created with Fabric.js 5.2.4</desc>
<defs>
</defs>
<rect x="0" y="0" width="100%" height="100%" fill="transparent"></rect>
<g transform="matrix(1 0 0 1 150 150)" id="50452f33-eede-43b9-84c6-74ffc6e4e937"  >
<rect style="stroke: none; stroke-width: 1; stroke-dasharray: none; stroke-linecap: butt; stroke-dashoffset: 0; stroke-linejoin: miter; stroke-miterlimit: 4; fill: rgb(255,255,255); fill-rule: nonzero; opacity: 1; visibility: hidden;" vector-effect="non-scaling-stroke"  x="-150" y="-150" rx="0" ry="0" width="300" height="300" />
</g>
<g transform="matrix(Infinity NaN NaN Infinity 0 0)" id="884ef46b-5580-42a2-9314-669a86f06a52"  >
</g>
<g transform="matrix(0.96 0 0 0.93 150 150)" id="30870467-1d57-4946-8393-589f8aa48ecb"  >
<path style="stroke: rgb(0,0,0); stroke-width: 0; stroke-dasharray: none; stroke-linecap: butt; stroke-dashoffset: 0; stroke-linejoin: miter; stroke-miterlimit: 4; fill: rgb(255,255,255); fill-rule: nonzero; opacity: 1;" vector-effect="non-scaling-stroke"  transform=" translate(-143.66, -143.66)" d="M 267.749 191.076 C 253.15400000000002 179.34699999999998 239.76600000000002 173.64499999999998 226.81900000000002 173.64499999999998 C 208.09000000000003 173.64499999999998 194.60500000000002 185.55899999999997 182.39600000000002 197.76399999999998 C 180.99200000000002 199.16899999999998 179.292 199.82399999999998 177.04700000000003 199.82399999999998 C 166.75900000000001 199.825 148.66000000000003 186.94099999999997 123.25300000000003 161.53099999999998 C 93.36300000000003 131.63899999999998 82.06200000000003 112.62699999999998 89.66100000000003 105.02499999999998 C 110.26100000000002 84.43199999999997 116.69200000000004 63.787999999999975 85.15200000000003 24.562999999999974 C 73.861 10.51 62.814 3.68 51.38 3.68 C 35.96 3.68 24.238000000000003 16.006 13.896 26.882 C 12.108 28.762 10.419 30.538 8.763000000000002 32.194 C -2.9259999999999984 43.882000000000005 -2.919999999999998 69.376 8.780000000000001 100.394 C 21.617 134.42700000000002 46.963 171.449 80.15 204.64100000000002 C 105.815 230.30400000000003 133.74 251.044 160.90800000000002 264.96900000000005 C 184.627 277.12700000000007 207.63400000000001 283.6410000000001 225.69100000000003 283.6410000000001 C 225.69300000000004 283.6410000000001 225.69500000000002 283.6410000000001 225.69800000000004 283.6410000000001 C 236.99800000000005 283.6410000000001 246.17700000000002 281.1760000000001 252.23900000000003 276.16300000000007 C 264.55300000000005 265.9820000000001 287.473 247.12400000000008 287.32000000000005 224.72400000000007 C 287.236 212.71 280.653 201.451 267.749 191.076 z" stroke-linecap="round" />
</g>
</svg>