<?xml version="1.0" encoding="UTF-8" standalone="no" ?>
<!DOCTYPE svg PUBLIC "-//W3C//DTD SVG 1.1//EN" "http://www.w3.org/Graphics/SVG/1.1/DTD/svg11.dtd">
<svg xmlns="http://www.w3.org/2000/svg" xmlns:xlink="http://www.w3.org/1999/xlink" version="1.1" width="1080" height="1080" viewBox="0 0 1080 1080" xml:space="preserve">
<desc>Created with Fabric.js 5.2.4</desc>
<defs>
</defs>
<rect x="0" y="0" width="100%" height="100%" fill="transparent"></rect>
<g transform="matrix(1 0 0 1 540 540)" id="b528dd53-ce16-46ed-8250-ab0658f47e39"  >
<rect style="stroke: none; stroke-width: 1; stroke-dasharray: none; stroke-linecap: butt; stroke-dashoffset: 0; stroke-linejoin: miter; stroke-miterlimit: 4; fill: rgb(255,255,255); fill-rule: nonzero; opacity: 1; visibility: hidden;" vector-effect="non-scaling-stroke"  x="-540" y="-540" rx="0" ry="0" width="1080" height="1080" />
</g>
<g transform="matrix(1 0 0 1 540 540)" id="5fdb7153-a854-4929-88d0-9e9b0fb2a17d"  >
</g>
<g transform="matrix(1 0 0 1 540 540)"  >
<g style="" vector-effect="non-scaling-stroke"   >
		<g transform="matrix(1 0 0 1 0 -3)"  >
<path style="stroke: none; stroke-width: 1; stroke-dasharray: none; stroke-linecap: butt; stroke-dashoffset: 0; stroke-linejoin: miter; stroke-miterlimit: 4; fill: rgb(255,255,255); fill-rule: evenodd; opacity: 1;" vector-effect="non-scaling-stroke"  transform=" translate(-12, -9)" d="M 16 9 C 16 11.2091 14.2091 13 12 13 C 9.79086 13 8 11.2091 8 9 C 8 6.79086 9.79086 5 12 5 C 14.2091 5 16 6.79086 16 9 Z M 14 9 C 14 10.1046 13.1046 11 12 11 C 10.8954 11 10 10.1046 10 9 C 10 7.89543 10.8954 7 12 7 C 13.1046 7 14 7.89543 14 9 Z" stroke-linecap="round" />
</g>
		<g transform="matrix(1 0 0 1 0 0)"  >
<path style="stroke: none; stroke-width: 1; stroke-dasharray: none; stroke-linecap: butt; stroke-dashoffset: 0; stroke-linejoin: miter; stroke-miterlimit: 4; fill: rgb(255,255,255); fill-rule: evenodd; opacity: 1;" vector-effect="non-scaling-stroke"  transform=" translate(-12, -12)" d="M 12 1 C 5.92487 1 1 5.92487 1 12 C 1 18.0751 5.92487 23 12 23 C 18.0751 23 23 18.0751 23 12 C 23 5.92487 18.0751 1 12 1 Z M 3 12 C 3 14.0902 3.71255 16.014 4.90798 17.5417 C 6.55245 15.3889 9.14627 14 12.0645 14 C 14.9448 14 17.5092 15.3531 19.1565 17.4583 C 20.313 15.9443 21 14.0524 21 12 C 21 7.02944 16.9706 3 12 3 C 7.02944 3 3 7.02944 3 12 Z M 12 21 C 9.84977 21 7.87565 20.2459 6.32767 18.9878 C 7.59352 17.1812 9.69106 16 12.0645 16 C 14.4084 16 16.4833 17.1521 17.7538 18.9209 C 16.1939 20.2191 14.1881 21 12 21 Z" stroke-linecap="round" />
</g>
</g>
</g>
</svg>